<?xml version="1.0" encoding="UTF-8" standalone="no"?>
<!-- Created with Inkscape (http://www.inkscape.org/) -->

<svg
   version="1.1"
   id="svg9"
   width="536.62726"
   height="886.71051"
   viewBox="0 0 536.62726 886.71051"
   sodipodi:docname="logo.svg"
   inkscape:version="1.1.2 (b8e25be833, 2022-02-05)"
   inkscape:export-filename="C:\src\sqbe\misc\sqbe.png"
   inkscape:export-xdpi="32.479595"
   inkscape:export-ydpi="32.479595"
   xmlns:inkscape="http://www.inkscape.org/namespaces/inkscape"
   xmlns:sodipodi="http://sodipodi.sourceforge.net/DTD/sodipodi-0.dtd"
   xmlns="http://www.w3.org/2000/svg"
   xmlns:svg="http://www.w3.org/2000/svg">
  <defs
     id="defs13" />
  <sodipodi:namedview
     id="namedview11"
     pagecolor="#ffffff"
     bordercolor="#666666"
     borderopacity="1.0"
     inkscape:pageshadow="2"
     inkscape:pageopacity="0.0"
     inkscape:pagecheckerboard="0"
     showgrid="false"
     inkscape:zoom="1.2540097"
     inkscape:cx="-39.8721"
     inkscape:cy="489.62939"
     inkscape:window-width="3840"
     inkscape:window-height="2054"
     inkscape:window-x="-11"
     inkscape:window-y="-11"
     inkscape:window-maximized="1"
     inkscape:current-layer="g15"
     fit-margin-left="40"
     lock-margins="true"
     fit-margin-top="40"
     fit-margin-right="40"
     fit-margin-bottom="40" />
  <g
     inkscape:groupmode="layer"
     inkscape:label="Image"
     id="g15"
     transform="translate(18.99049,20.44359)">
    <g
       id="g917"
       inkscape:export-filename="C:\src\sqbe\logo.png"
       inkscape:export-xdpi="53.82"
       inkscape:export-ydpi="53.82"
       transform="translate(-267.94051,-154.70375)">
      <path
         style="fill:#000000"
         d="m 548.35213,980.44648 c -21.58286,-3.27361 -40.48161,-19.63801 -47.44088,-41.079 -2.83693,-8.74034 -3.34801,-24.73834 -1.08459,-33.94973 2.96478,-12.06563 11.68197,-25.59832 21.08995,-32.7403 6.45871,-4.90307 6.20938,-6.68873 -0.97596,-6.98963 -20.26295,-0.84855 -51.0312,-5.69597 -75.14231,-11.83839 -32.46987,-8.27185 -59.35693,-18.29722 -88.34832,-32.94243 l -18,-9.09283 -0.25857,-54.10739 -0.25857,-54.1074 3.75857,-2.91082 c 2.06721,-1.60095 5.44607,-3.92852 7.50857,-5.17237 2.62005,-1.58011 3.75,-2.96641 3.75,-4.60076 0,-1.28655 -1.10728,-13.28735 -2.46062,-26.66844 -4.00458,-39.59504 -4.84496,-60.3391 -4.22307,-104.24367 0.58343,-41.18954 1.22588,-52.09755 4.74622,-80.58557 2.84809,-23.04784 5.31874,-37.33928 10.48506,-60.65071 2.45622,-11.08289 4.22263,-20.78452 3.92536,-21.55917 -0.76273,-1.98765 -10.03451,-7.29168 -15.97295,-9.13751 -2.75,-0.85478 -9.5875,-2.66638 -15.19444,-4.02578 -14.11945,-3.42325 -22.2473,-7.52749 -29.6887,-14.99161 -10.50791,-10.53998 -15.61686,-22.85914 -15.61686,-37.65676 0,-11.95993 2.5826,-21.12273 11.05611,-39.22586 12.14564,-25.94844 15.73325,-39.66189 14.58558,-55.7526 -0.33344,-4.675 -1.54589,-11.65 -2.69433,-15.5 -3.36956,-11.29605 -3.44832,-11.05983 3.5481,-10.64165 16.55512,0.9895 30.09213,9.41804 42.40841,26.40473 6.16212,8.49884 10.06917,10.62276 27.49482,14.94653 18.87332,4.68298 27.82567,8.98752 36.1129,17.36409 3.4178,3.45466 7.40795,8.84852 9.24795,12.50135 3.26379,6.47939 7.22746,20.04616 7.25577,24.83491 0.0332,5.62108 0.40642,5.63623 19.60912,0.79621 9.83156,-2.47803 20.24976,-4.8195 23.15155,-5.20325 2.90179,-0.38376 5.87146,-1.29321 6.59926,-2.02101 0.72779,-0.7278 1.60424,-3.94647 1.94766,-7.15259 2.27012,-21.19377 13.59955,-41.03708 30.18855,-52.87474 8.33,-5.94417 16.11425,-9.34596 32.87422,-14.36637 17.81436,-5.33626 23.76574,-8.2837 30.72115,-15.21479 7.04599,-7.02133 11.44701,-15.77445 13.70859,-27.26477 l 1.72541,-8.76624 5.03656,4.01017 c 5.10513,4.06477 11.47226,12.31197 15.21479,19.7074 5.41037,10.69115 6.82772,27.98786 3.2437,39.58468 -2.68024,8.67247 -6.77062,14.83367 -16.5013,24.85534 -10.9483,11.27569 -11.96596,13.36435 -11.18497,22.95621 0.86292,10.59819 4.08683,23.25575 6.32208,24.8215 1.00558,0.70439 4.07832,2.73006 6.82832,4.5015 3.55832,2.29212 5.85873,4.80664 7.97823,8.72079 2.88608,5.32982 2.99755,6.04147 3.60247,23 0.61825,17.33199 0.67452,17.67281 5.86095,35.5 2.88019,9.9 5.75908,18.5039 6.39753,19.11979 0.63845,0.61588 4.08582,1.65731 7.66082,2.31429 21.03197,3.86505 56.42999,12.90096 75.35834,19.23642 18.89638,6.32476 25.52285,11.47104 27.78477,21.57837 1.01524,4.5366 0.92094,6.77789 -0.61251,14.55667 -2.35339,11.93822 -2.32234,14.59517 0.28278,24.19446 10.96562,40.40598 -2.51088,95.23454 -30.21835,122.94201 -6.7951,6.79509 -13.27427,10.69302 -21.01316,12.64169 -3.70866,0.93385 -5.24666,2.01781 -7.51333,5.29526 -13.21702,19.11098 -34.76135,30.04844 -63.54708,32.26108 -5.4256,0.41705 -8.88075,1.13269 -9.17537,1.90044 -0.25991,0.67732 1.3319,9.04529 3.53735,18.5955 2.20545,9.55021 5.15658,22.67675 6.55806,29.1701 1.40148,6.49334 3.01425,12.67697 3.58391,13.7414 0.56967,1.06444 6.5345,4.61294 13.25518,7.88556 6.72067,3.27263 13.23191,6.89402 14.46941,8.04755 l 2.25,2.09732 v 47.82147 c 0,26.30181 -0.28222,49.88046 -0.62715,52.397 l -0.62714,4.57552 -8.52502,3.66232 c -14.21026,6.10466 -26.94045,10.41482 -43.22069,14.63357 -8.525,2.20912 -15.95,4.47088 -16.5,5.02616 -0.66911,0.67552 -0.0186,1.72041 1.96603,3.15782 16.64658,12.05678 26.26821,29.10135 27.30676,48.37353 0.9928,18.42314 -5.0186,34.2435 -17.91098,47.13683 -12.19157,12.19245 -31.12964,18.64349 -47.4597,16.1666 z m 24.83579,-20.83722 c 8.54996,-3.87673 15.04421,-10.49897 19.51639,-19.90099 10.22581,-21.49808 0.92951,-48.82202 -19.81175,-58.23125 -7.28387,-3.30431 -9.94254,-2.50224 -9.94254,2.99946 0,2.56843 -4.38908,5.31142 -7.32128,4.57548 -1.28471,-0.32244 -2.86299,-1.74322 -3.50728,-3.15729 -1.50705,-3.30762 -1.41682,-18.94888 0.135,-23.40181 1.62119,-4.65197 3.27355,-4.9089 3.39772,-0.52833 0.0558,1.96955 0.88998,4.45225 1.85366,5.51711 2.90501,3.21 6.08067,2.39286 11.40932,-2.93579 3.8553,-3.85531 5.00729,-5.78545 5.52078,-9.25 0.35689,-2.40795 0.50561,-23.2781 0.33049,-46.3781 -0.29384,-38.75938 -0.46274,-42.27005 -2.189,-45.5 -4.16738,-7.79745 -9.52257,-11 -18.39379,-11 -4.78643,0 -6.70742,0.54753 -10.61469,3.02545 -2.62385,1.66399 -4.58978,3.57649 -4.36873,4.25 0.22105,0.6735 3.02654,1.74944 6.23442,2.39097 11.76735,2.3533 12.97056,4.18559 12.92523,19.68308 -0.0179,6.13278 -0.11794,24.313 -0.22223,40.4005 l -0.18962,29.25 h -2.18428 c -3.58529,0 -10.64528,3.9519 -13.0214,7.28885 -1.81297,2.54609 -2.29461,4.83125 -2.62882,12.47264 l -0.40917,9.35543 -5.12817,3.79054 c -14.88827,11.00483 -21.52501,26.13273 -18.90123,43.08381 2.08708,13.48366 10.65018,25.61896 22.21175,31.47766 10.88149,5.51407 24.13355,5.78534 35.29922,0.72258 z m -10.58512,-9.19151 c -2.78189,-2.44253 -4.30918,-3 -8.21907,-3 -7.0484,0 -12.86501,-3.1766 -16.19784,-8.84605 -2.58923,-4.4045 -2.73587,-5.32769 -2.73587,-17.224 0,-11.94056 0.13345,-12.77186 2.66481,-16.59983 3.58993,-5.42876 9.86227,-8.33012 18.00857,-8.33012 13.33565,0 19.64648,6.56505 20.57205,21.40077 0.72219,11.57584 -0.25669,16.973 -3.81303,21.02344 -3.62192,4.12514 -3.71551,6.32755 -0.32371,7.61711 2.3004,0.87462 2.44812,1.19668 1.25,2.72525 -3.96805,5.06247 -6.5244,5.34385 -11.20591,1.23343 z m -8.15278,-14.78933 c 0,-4.86179 1.88719,-6.03986 5.45264,-3.4038 3.52554,2.60654 4.62723,2.73034 5.44037,0.61134 1.04697,-2.72835 0.66049,-20.20668 -0.50328,-22.76089 -2.343,-5.14233 -12.17753,-6.46043 -16.43518,-2.20277 -2.32448,2.32447 -2.45455,3.07044 -2.45455,14.07692 0,11.58455 0.01,11.63216 3.00481,14.62718 3.59758,3.59759 5.49519,3.27023 5.49519,-0.94798 z m -13.73655,-121.93824 0.26346,-33.22757 -2.26346,-0.46584 c -1.2449,-0.25621 -7.21345,-0.74286 -13.26345,-1.08144 -20.51408,-1.14803 -52.04123,-6.35116 -78.5,-12.95536 -24.58554,-6.13663 -55.25967,-16.90982 -85.27261,-29.94894 -4.59885,-1.99798 -4.96784,-1.49806 -4.53141,7.00484 0.0704,21.98098 1.22598,40.73898 0.94761,56.27642 0.37021,2.20392 6.52056,3.85553 10.56878,5.9593 2.6332,1.36842 6.24972,2.61722 8.03672,3.80887 9.06723,6.04647 49.68446,20.58772 73.75091,26.40334 27.76882,6.71029 66.73989,11.93842 86,11.53726 l 4,-0.0833 0.26345,-33.22757 z m 68.94077,25.15796 c 16.60906,-4.80488 24.215,-7.70438 25.49548,-9.71927 1.12662,-1.7728 0.99274,-62.47415 -0.13934,-63.17381 -0.51679,-0.3194 -6.02929,0.95369 -12.25,2.82909 -6.2207,1.8754 -15.81036,4.43296 -21.31036,5.68346 -5.5,1.2505 -10.35126,2.76335 -10.78057,3.36189 -0.77279,1.07741 -0.77531,63.39388 -0.003,64.83825 0.69076,1.29122 2.75898,0.87516 18.98741,-3.81961 z m -5.4479,-20.41265 c -2.84376,-1.20233 -6.2477,-6.71872 -6.25258,-10.13288 -0.0122,-8.51063 14.50682,-12.70482 19.46678,-5.62349 5.63306,8.04232 -4.07645,19.61977 -13.2142,15.75637 z m -77.85956,-64.76774 c 3.14687,-6.15016 8.83113,-11.57538 15.10324,-14.41495 3.94122,-1.78431 6.79993,-2.26234 13.5,-2.25745 7.58048,0.006 9.16508,0.34922 14.64793,3.17717 5.61254,2.89483 7.77579,4.92016 15.7265,14.72387 l 2.41565,2.97863 10.82531,-2.24898 c 5.95392,-1.23694 11.25129,-2.67497 11.77195,-3.19563 0.59553,-0.59553 -0.0835,-5.50251 -1.83064,-13.22965 -1.52751,-6.75566 -4.08223,-18.28365 -5.67717,-25.61776 -1.59493,-7.33411 -3.28858,-14.08411 -3.76366,-15 -0.47509,-0.91589 -1.85058,-6.39025 -3.05665,-12.16525 -3.40375,-16.29811 -7.1599,-31.41485 -8.03428,-32.33423 -0.43638,-0.45883 -5.233,0.0768 -10.65917,1.19037 -26.99671,5.54015 -51.6182,3.17587 -75.99818,-7.29773 -25.44845,-10.93262 -44.83453,-29.87291 -61.60102,-60.18448 -5.99674,-10.84131 -12.39595,-26.94596 -14.15866,-35.63261 -1.50491,-7.41618 -3.26478,-26.64082 -2.35642,-25.74132 0.2777,0.275 2.38101,5.225 4.67401,11 9.3451,23.53599 23.57129,45.36105 41.0745,63.01429 20.30887,20.48296 40.45491,31.45636 65.08352,35.45054 9.97249,1.6173 20.13912,1.89482 23.3501,0.63739 2.33504,-0.91441 1.46762,-1.52366 -4.41681,-3.10222 -7.19736,-1.93078 -22.31992,-9.39854 -30.54038,-15.08134 -17.80458,-12.3083 -34.50661,-36.29603 -40.67539,-58.41866 -1.91132,-6.85443 -2.24004,-10.56899 -2.29556,-25.94031 l -0.0648,-17.94031 -6.70863,-3.3964 c -11.81761,-5.98294 -21.04926,-15.91116 -24.64999,-26.50991 -2.57488,-7.57916 -4.15229,-7.27125 -10.07063,1.96578 -2.75614,4.30163 -5.01122,8.42115 -5.0113,9.15448 -7e-5,0.73334 -0.56026,1.14663 -1.24486,0.91843 -1.97336,-0.65779 -3.86095,-10.61756 -3.17141,-16.73382 1.5741,-13.96234 9.00867,-23.12339 22.31971,-27.50286 7.08098,-2.32972 19.44239,-1.65352 26.59513,1.4548 5.85743,2.54543 5.05871,3.46627 -3.75167,4.3253 -6.26086,0.61045 -15.33853,4.29632 -18.59074,7.54853 -1.62619,1.62619 -1.87727,2.64239 -1.21952,4.93582 2.21528,7.72425 11.65075,17.78673 20.38808,21.74292 14.61511,6.61761 31.96484,5.40897 51.42699,-3.58257 4.7105,-2.17626 8.81703,-3.70435 9.12562,-3.39575 1.33922,1.33922 -15.9801,16.21394 -24.34498,20.90873 -10.16195,5.70339 -11.02548,7.05619 -12.61965,19.77 -3.27071,26.08437 9.20884,54.33486 31.58717,71.50526 25.10212,19.2603 61.52885,22.6475 93.15266,8.66195 15.0706,-6.66494 31.75572,-20.62016 40.36169,-33.75804 4.61065,-7.0386 9.75255,-19.65224 10.63467,-26.08797 l 0.60337,-4.40212 -11.95869,-5.99471 c -30.70942,-15.39416 -48.32643,-31.87384 -57.05165,-53.36844 -3.41548,-8.41404 -4.28575,-23.12041 -1.80939,-30.57604 3.15602,-9.50188 13.77126,-16.05924 40.03576,-24.73134 12.73299,-4.20421 15.43078,-5.7641 11.83663,-6.84407 -1.50418,-0.45197 -16.18943,-2.81869 -32.54981,-5.24581 -2.05962,-0.30556 -3.9529,-0.89233 -4.20729,-1.30395 -0.2544,-0.41162 -1.17834,-4.30997 -2.05322,-8.66299 -2.50943,-12.48595 -7.49262,-31.50983 -9.03519,-34.49284 -4.00841,-7.7514 -16.72265,-13.73595 -26.23168,-12.34715 -5.4627,0.79783 -12.5015,4.10188 -17.24937,8.09695 l -3.30662,2.78234 0.60322,-7.19518 c 0.72543,-8.65291 3.22279,-14.68993 8.0905,-19.55764 6.53502,-6.53501 17.89634,-7.40467 27.61711,-2.11397 2.76503,1.50492 5.30408,2.45945 5.64235,2.12118 0.33826,-0.33826 0.32178,-2.17816 -0.0366,-4.08867 -0.86351,-4.60286 -8.31953,-12.80291 -14.12071,-15.52979 -14.51167,-6.82128 -52.90014,-11.26314 -78.96771,-9.1372 -20.00722,1.63169 -68.59071,11.73809 -71.78554,14.93292 -0.54706,0.54706 -2.47755,4.40488 -4.28998,8.57294 -3.55231,8.16925 -10.92639,19.89982 -14.50663,23.07692 l -2.21388,1.9646 0.65497,-9.5 c 3.15613,-45.77781 1.44063,-58.49318 -9.50784,-70.47255 -6.74697,-7.38225 -14.13456,-10.84291 -30.8511,-14.45196 -7.425,-1.60303 -15.3,-3.67504 -17.5,-4.60447 -6.97844,-2.94816 -13.27802,-8.36814 -18.02435,-15.50765 -2.53174,-3.80828 -4.99207,-7.1645 -5.46741,-7.45828 -1.24485,-0.76936 -1.77743,1.79676 -2.54385,12.25696 -0.8208,11.20256 -0.64617,11.54795 10.50169,20.7708 9.20178,7.61282 17.01997,17.00464 20.49988,24.62606 1.52188,3.3331 3.21215,10.41645 4.49597,18.84109 2.93704,19.27339 6.3991,28.59303 16.90231,45.5 2.73344,4.4 4.55321,8.15133 4.04394,8.3363 -1.59556,0.57949 -17.88045,-10.85903 -24.03842,-16.8846 -8.77207,-8.58347 -11.55466,-15.26936 -12.88173,-30.9517 -1.54062,-18.20585 -2.67149,-25.09377 -5.02385,-30.59944 -3.54189,-8.28975 -14.19979,-26.48869 -15.29823,-26.12254 -0.57104,0.19034 -2.19199,3.69316 -3.60211,7.78403 -1.41011,4.09087 -3.32887,8.56295 -4.26391,9.93795 -5.37121,7.89851 -12.9867,28.08648 -14.71067,38.99667 -1.83346,11.60305 2.13305,24.47929 9.54571,30.98769 5.09849,4.47654 9.66101,6.34432 25.50116,10.43955 7.42184,1.9188 15.60552,4.39372 18.18595,5.49982 10.30211,4.416 22.86131,14.97445 24.21164,20.35458 0.32428,1.29206 -0.76693,7.20174 -2.45125,13.27521 -6.11214,22.03976 -12.46459,58.00475 -15.53389,87.94648 -2.5964,25.32857 -3.5486,45.7207 -3.548,75.98293 7.7e-4,38.72986 1.37311,63.63254 6.03529,109.51707 1.08974,10.725 2.45922,24.21716 3.0433,29.98257 0.58409,5.76541 1.47095,10.97536 1.97081,11.57765 3.93314,4.73915 45.56913,19.3242 79.45002,27.83128 22.46911,5.64172 49.52592,10.23962 61.73315,10.49062 l 5.73316,0.11788 2.43045,-4.75 z m 59.55727,-196 c -8.5082,-7.60273 -1.73981,-21.9332 9.37444,-19.84816 7.24467,1.35911 11.33324,11.35302 7.11083,17.38137 -3.92057,5.59738 -11.6821,6.75879 -16.48527,2.46679 z m -20.65321,-36.20813 c -6.53571,-3.98507 -6.50527,-15.11697 0.0523,-19.11553 4.92559,-3.00344 9.25099,-2.52226 13.24691,1.47366 2.83107,2.83107 3.4,4.1325 3.4,7.77749 0,4.99847 -1.84942,8.17616 -6.01104,10.32822 -3.87796,2.00537 -6.85003,1.87639 -10.68814,-0.46384 z m -65.80082,-94.93773 c -10.66527,-4.93786 -14.6689,-16.7971 -9.1768,-27.18281 2.68963,-5.08616 10.64471,-9.92133 16.32311,-9.92133 17.72271,0 25.96735,22.8914 12.36649,34.33578 -5.62593,4.7339 -13.00594,5.78093 -19.5128,2.76836 z m -34.55528,-44.74954 c -2.72188,-7.15909 -1.91644,-21.56596 1.58757,-28.39668 5.85834,-11.42027 25.85694,-25.3578 45.81789,-31.93165 5.42062,-1.7852 7.34669,-2.02978 9.22937,-1.17198 4.95595,2.25809 17.42045,22.39104 17.42045,28.13794 0,1.97358 -0.11524,1.96068 -3.75,-0.41974 -9.46294,-6.19729 -20.413,-5.49155 -35.65641,2.29809 -11.89274,6.07739 -23.81667,17.21939 -29.01547,27.11272 -2.02795,3.85918 -3.89878,7.0167 -4.1574,7.0167 -0.25862,0 -0.92282,-1.19043 -1.476,-2.6454 z m 158.79592,254.13276 c 10.0296,-0.75846 19.2364,-3.29021 26.96102,-7.41395 6.50508,-3.47269 15.3059,-10.61358 15.28393,-12.40122 -0.0113,-0.9175 -6.82223,-5.47406 -11.1856,-7.48321 -0.38501,-0.17728 -2.63501,1.432 -5,3.57616 -9.09426,8.2451 -21.65038,15.14545 -36.04999,19.81165 -4.8125,1.5595 -8.75,3.16418 -8.75,3.56597 0,0.82746 5.47513,1.61738 8.5,1.22633 1.1,-0.14221 5.70829,-0.53899 10.24064,-0.88173 z m 70.35616,-39.56473 c 4.77354,-2.39814 12.95362,-11.4746 18.00618,-19.97931 9.20559,-15.4953 13.89636,-33.00479 14.65227,-54.69332 0.60345,-17.31437 0.0209,-17.78954 -8.28307,-6.75616 -6.79141,9.02367 -19.0229,20.51831 -26.22677,24.64681 -7.12241,4.08182 -7.89171,5.01326 -8.72152,10.55981 -1.2539,8.38112 -5.54615,20.48827 -10.81398,30.50301 -5.09359,9.68346 -5.1001,9.7079 -3.15937,11.85238 5.91639,6.53753 16.05191,8.13418 24.54626,3.86678 z m -28.5968,-147.84394 c 49.63867,-12.0163 54.58747,-13.38599 54.27258,-15.02106 -0.20652,-1.07241 -2.78609,-2.08368 -8.28623,-3.24847 -14.35386,-3.03978 -19.07967,-3.16314 -32.51931,-0.8489 -22.9286,3.94819 -54.57351,12.85065 -55.64988,15.65562 -0.73928,1.92653 2.94779,5.81144 7.78852,8.20644 4.69078,2.32081 5.90098,2.1539 34.39432,-4.74363 z M 576.33993,295.66775 c -0.48699,-3.1625 -0.88645,-10.25 -0.88768,-15.75 -0.003,-13.76255 2.36769,-18.44388 16.20574,-32 7.5316,-7.37815 10.61227,-11.14725 11.75,-14.37573 1.73855,-4.93337 2.06867,-14.68075 0.52943,-15.63206 -0.55693,-0.3442 -3.26244,1.83587 -6.01225,4.84461 -8.66708,9.48316 -16.92646,13.73972 -39.06325,20.13166 -18.39359,5.3111 -27.32784,10.00992 -35.07176,18.44541 -4.22278,4.5999 -7.26174,9.0979 -9.09973,13.46864 -2.90051,6.89738 -5.6854,18.28249 -4.98559,20.38192 0.29862,0.89587 3.96975,1.23555 13.35326,1.23555 h 12.94142 l 0.67621,-2.73954 c 0.3617,-1.46535 1.00017,-3.5657 1.27429,-4.8911 1.50683,-7.28567 11.61824,-24.95636 19.20034,-28.94782 4.16634,-2.19329 4.23886,-1.75258 0.4416,2.68367 -4.43782,5.18459 -6.8033,10.14674 -7.41219,15.54881 -0.55576,4.93069 1.41196,16.47373 3.23272,18.96376 1.21771,1.66533 12.28589,3.97518 20.42521,4.26259 l 3.38768,0.11963 z"
         id="path2252"
         sodipodi:nodetypes="ssssssscccssssssssssssssssssssssssssssscsssssssssssssssssssssssssscsscsssssssssssssssssssssssssscssscsssssssssssssssssssssssccssssccsssscccsssssscsssssssscsscsssssssssssssssssssscsssssssssssssssssssscssssssssssscsssssssssscsssssssssssssssssssssssssssssssccssssssssssssssssssssssssssssssssssssssssssssssssssssssssssssssscssssssscs" />
      <path
         style="fill:#ffffff;stroke-width:0.563877"
         d="m 521.5859,846.26885 c -28.41929,-2.18297 -62.6926,-8.28259 -86.55507,-15.4042 -27.88802,-8.32301 -44.0766,-14.79249 -73.02202,-29.18195 l -3.10133,-1.54174 -0.351,-7.89427 c -0.19306,-4.34186 -0.54899,-18.86873 -0.79097,-32.28194 l -0.43995,-24.38767 h 1.20551 c 0.66303,0 5.9754,1.99878 11.80525,4.44173 20.35979,8.53158 45.05848,17.36421 63.20596,22.60341 28.60642,8.25871 62.64511,14.35091 93.09016,16.66115 6.34212,0.48126 12.1553,1.03167 12.91817,1.22314 l 1.38703,0.34812 -0.37108,20.63876 c -0.20409,11.35131 -0.37144,26.1577 -0.3719,32.90307 l -8.3e-4,12.26432 -8.03525,-0.0985 c -4.41938,-0.0542 -9.17709,-0.18622 -10.57268,-0.29342 z"
         id="path257" />
      <path
         style="fill:#ffffff;stroke-width:0.563877"
         d="m 547.80616,961.9918 c -7.42274,-1.61897 -13.13495,-4.69137 -18.81497,-10.11993 -12.90884,-12.33736 -17.16039,-31.78007 -10.368,-47.41373 3.32028,-7.6421 10.34614,-15.8822 18.24495,-21.39812 l 3.1589,-2.20594 0.34977,-8.09822 c 0.42717,-9.89033 1.03718,-12.11227 4.19296,-15.27257 2.8616,-2.86568 8.60685,-5.74655 11.46151,-5.74717 l 2.02247,-4.5e-4 0.38095,-37.07489 c 0.40024,-38.95169 0.18367,-44.43577 -1.8871,-47.78635 -1.34472,-2.1758 -4.59798,-3.70003 -10.81233,-5.06583 -2.37952,-0.52297 -4.7901,-1.31146 -5.35683,-1.7522 -0.97791,-0.76049 -0.9442,-0.87455 0.6612,-2.23759 5.10876,-4.33751 10.20862,-5.79686 16.72472,-4.78585 2.17258,0.33709 4.95459,1.12532 6.18224,1.75162 3.07854,1.57055 6.37553,5.11644 8.17266,8.78964 1.48916,3.04373 1.51597,3.30698 2.0193,19.82571 0.28055,9.20757 0.43353,29.30138 0.33995,44.65292 -0.19445,31.89842 0.11314,29.85749 -5.36593,35.6045 -3.77102,3.95544 -6.82528,5.74718 -8.90644,5.22484 -1.84096,-0.46205 -3.65487,-3.04879 -4.01294,-5.72266 -0.5231,-3.9062 -0.7913,-4.65734 -1.66297,-4.65734 -0.48452,0 -1.41232,1.18122 -2.10379,2.67841 -1.13234,2.45177 -1.23702,3.56115 -1.23702,13.11014 0,11.66036 0.41366,13.31396 3.66781,14.66187 3.68337,1.5257 8.45554,-1.49181 8.45554,-5.34656 0,-2.6013 1.65113,-3.92175 4.35728,-3.48462 5.4213,0.87572 14.50466,6.89668 19.0703,12.64089 3.0936,3.89216 7.14586,12.01207 8.51016,17.05265 1.37942,5.09641 1.37416,16.94041 -0.01,21.95856 -5.19228,18.82754 -20.67799,31.1606 -38.92567,31.00101 -2.81911,-0.0246 -6.64813,-0.37689 -8.50892,-0.78274 z m 24.52701,-10.79751 c 1.24142,-1.12155 2.25713,-2.49209 2.25713,-3.04563 0,-0.55354 -0.88811,-1.53044 -1.97357,-2.17088 -2.46134,-1.45223 -2.56221,-3.04868 -0.36179,-5.72597 2.69031,-3.27333 4.03341,-6.55285 4.62902,-11.30295 0.65701,-5.23974 -0.0673,-15.54854 -1.40381,-19.97971 -2.74042,-9.08586 -9.29478,-13.08831 -20.56185,-12.55617 -8.99309,0.42473 -14.39751,3.31248 -17.84376,9.53447 l -1.67367,3.0217 v 12.40529 c 0,14.24388 0.2859,15.40334 5.05544,20.50237 3.34763,3.57888 6.95952,5.12589 13.37214,5.72742 4.75527,0.44607 5.18414,0.60029 8.48006,3.04953 4.53557,3.37044 6.75955,3.49036 10.02466,0.54053 z"
         id="path296" />
      <path
         style="fill:#ffffff;stroke-width:0.563877"
         d="m 591.43339,842.6684 c -0.63947,-0.39522 -0.77261,-5.96626 -0.77261,-32.3289 0,-21.57618 0.19179,-32.04319 0.5945,-32.4459 0.32698,-0.32698 5.90936,-1.96549 12.40529,-3.64114 6.49593,-1.67564 15.36321,-4.04885 19.70506,-5.27379 4.34185,-1.22494 8.68286,-2.37674 9.64668,-2.55957 l 1.7524,-0.33241 0.36214,4.28402 c 0.4688,5.546 0.46083,53.90827 -0.009,56.75433 -0.2677,1.62038 -0.80425,2.44461 -2.10834,3.23876 -2.59672,1.58135 -9.96724,4.14527 -22.61268,7.86611 -14.04972,4.13403 -17.97075,5.05178 -18.96308,4.43849 z m 19.4259,-23.67824 c 2.6469,-0.73501 6.14149,-3.80517 7.4358,-6.53272 1.26107,-2.65752 0.95019,-7.8217 -0.59586,-9.89803 -5.40501,-7.25889 -19.98999,-2.95344 -19.98999,5.90098 0,2.56612 2.54067,7.48482 4.71028,9.11906 2.68185,2.02008 4.90629,2.3919 8.43977,1.41071 z"
         id="path335" />
      <path
         style="fill:#ffffff;stroke-width:0.563877"
         d="m 548.69437,962.20629 c -7.47692,-1.46695 -13.6843,-4.68028 -19.33069,-10.0068 -15.57941,-14.69682 -18.43363,-37.41309 -6.89035,-54.83911 2.74756,-4.14777 9.58909,-10.94442 14.39481,-14.30036 l 3.1589,-2.20594 0.34977,-8.09822 c 0.42717,-9.89033 1.03718,-12.11227 4.19296,-15.27257 2.86143,-2.86552 8.60681,-5.74655 11.46107,-5.74717 l 2.02204,-4.5e-4 0.37641,-37.09117 c 0.38557,-37.99524 0.16014,-44.35693 -1.68237,-47.47606 -1.33698,-2.26331 -4.33111,-3.76356 -10.21479,-5.11824 -2.80369,-0.64554 -5.56708,-1.53852 -6.14087,-1.98442 -0.99533,-0.77348 -0.96555,-0.87669 0.64838,-2.24697 5.10876,-4.33751 10.20862,-5.79686 16.72472,-4.78585 2.17258,0.33709 4.95459,1.12532 6.18224,1.75162 3.07854,1.57055 6.37553,5.11644 8.17266,8.78964 1.48916,3.04373 1.51597,3.30698 2.0193,19.82571 0.28055,9.20757 0.43353,29.30138 0.33995,44.65292 -0.19482,31.95891 0.088,30.09236 -5.41094,35.70929 -5.52059,5.63902 -8.97678,6.59226 -11.42676,3.15158 -0.86125,-1.20951 -2.16832,-6.08107 -2.21905,-8.27056 -0.002,-0.0775 -0.39815,-0.14097 -0.88079,-0.14097 -0.49827,0 -1.40923,1.15755 -2.10783,2.67841 -1.12267,2.44409 -1.23089,3.59106 -1.23701,13.11014 -0.008,11.66149 0.40491,13.31311 3.6611,14.66187 3.68337,1.5257 8.45554,-1.49181 8.45554,-5.34656 0,-4.26192 3.919,-4.67237 10.67502,-1.11803 5.01403,2.63788 9.65457,6.3766 12.75256,10.2743 3.0936,3.89216 7.14586,12.01207 8.51016,17.05265 1.37942,5.09641 1.37416,16.94041 -0.01,21.95856 -5.19477,18.83656 -20.73135,31.20336 -38.92567,30.98406 -2.81911,-0.034 -6.24843,-0.28207 -7.62071,-0.5513 z m 23.6388,-11.012 c 1.24142,-1.12155 2.25713,-2.49209 2.25713,-3.04563 0,-0.55354 -0.88811,-1.53044 -1.97357,-2.17088 -2.51424,-1.48344 -2.53001,-2.82381 -0.073,-6.2018 3.03267,-4.16937 3.76066,-6.03035 4.33447,-11.08023 0.62225,-5.47623 -0.0808,-15.35073 -1.4063,-19.75211 -2.70651,-8.98706 -9.46967,-13.10145 -20.58075,-12.52038 -9.03233,0.47236 -14.38906,3.33588 -17.81665,9.52419 l -1.67367,3.0217 v 12.40529 12.40528 l 1.56221,3.18112 c 1.82466,3.71556 5.63952,7.44683 9.24365,9.04111 1.42381,0.62982 4.7527,1.33315 7.55315,1.59585 4.72717,0.44343 5.20548,0.6133 8.54883,3.03607 4.62973,3.35494 6.79713,3.47611 10.02446,0.56042 z"
         id="path374" />
      <path
         style="fill:#ffffff;stroke-width:0.563877"
         d="m 549.33827,936.24034 c -1.36583,-1.35231 -2.49472,-3.07365 -2.68662,-4.09658 -0.18204,-0.97034 -0.25049,-6.24466 -0.15211,-11.72071 0.17474,-9.72654 0.21142,-9.99126 1.58856,-11.4636 2.13132,-2.27866 4.13158,-3.09162 7.60679,-3.09162 3.91135,0 7.21912,1.57654 8.58894,4.09364 0.84873,1.55957 0.99491,3.37055 0.99841,12.36947 0.003,7.29868 -0.1988,10.74595 -0.65534,11.20393 -0.50425,0.50584 -1.38295,0.24756 -3.73384,-1.09747 -1.69092,-0.96745 -3.60551,-1.759 -4.25464,-1.759 -1.38468,0 -2.34455,1.53599 -2.35538,3.7691 -0.0228,4.70823 -1.47021,5.23301 -4.94477,1.79284 z"
         id="path413" />
      <path
         style="fill:#ffffff;stroke-width:0.563877"
         d="m 512.84581,757.742 c -11.06235,-0.98371 -33.0995,-4.8365 -49.86869,-8.71863 -32.93248,-7.62397 -82.2775,-24.56468 -85.37478,-29.31015 -1.22987,-1.88432 -1.7049,-5.43012 -4.56022,-34.03922 -4.97025,-49.79967 -5.91643,-63.69027 -6.42622,-94.34084 -0.42337,-25.45481 0.0428,-59.48185 1.00188,-73.13052 2.6761,-38.08353 8.44886,-75.86733 16.67029,-109.11013 4.08518,-16.51817 4.12584,-16.86654 2.32695,-19.93612 -3.30163,-5.6338 -15.80981,-15.20146 -23.99017,-18.3504 -2.35468,-0.9064 -8.5949,-2.82467 -13.86715,-4.2628 -15.29438,-4.17193 -18.92566,-5.35728 -23.09933,-7.5403 -13.89334,-7.26684 -18.9416,-24.16789 -13.0816,-43.79585 2.83433,-9.49355 6.04202,-17.45536 10.33655,-25.65638 2.03004,-3.87666 4.82482,-9.96333 6.21062,-13.52594 3.0743,-7.9034 3.36346,-8.31365 4.67094,-6.62695 1.96537,2.53543 8.00519,12.96318 11.25668,19.43466 4.52621,9.00856 5.47313,13.05605 7.09387,30.32175 2.06757,22.02568 3.71991,26.44452 13.49441,36.08811 7.79964,7.69515 23.02068,18.36019 24.33388,17.05018 0.5563,-0.55495 -0.69126,-3.13338 -5.15261,-10.64927 -9.53796,-16.06827 -12.1688,-23.41224 -15.76843,-44.01744 -2.63445,-15.08024 -4.30068,-19.65891 -9.97406,-27.4079 -2.52412,-3.44757 -10.50123,-11.55638 -18.9621,-19.27513 -6.95939,-6.34899 -7.17699,-6.97268 -6.28182,-18.00529 0.58646,-7.22783 1.19352,-10.75242 1.85194,-10.75242 0.11438,0 1.9208,2.4163 4.01426,5.36956 5.14572,7.25906 8.70569,11.04097 13.18824,14.01043 5.31932,3.52376 6.63319,3.98507 22.08883,7.75544 7.59824,1.85357 15.90845,4.22337 18.46714,5.26622 5.99941,2.44519 11.26668,6.23233 15.05373,10.82355 8.21279,9.95674 10.36957,19.76501 9.71399,44.17568 -0.31991,11.91141 -1.21281,28.45059 -1.75805,32.56387 -0.1336,1.00793 -0.005,1.8326 0.28551,1.8326 1.08617,0 5.26774,-4.79809 8.52816,-9.78553 1.85427,-2.83646 5.41254,-9.30908 7.90727,-14.3836 5.30436,-10.78958 4.40692,-10.09078 17.15531,-13.35814 18.86015,-4.83379 48.33986,-9.99875 62.83884,-11.00962 23.55368,-1.64214 60.59375,2.89706 74.28062,9.10298 6.41381,2.90816 13.96295,11.36039 14.96866,16.75934 0.48415,2.59906 -0.54739,2.78172 -4.51018,0.79865 -6.51069,-3.25809 -12.07803,-4.34839 -17.65484,-3.45749 -5.07504,0.81074 -7.99429,2.23573 -11.25013,5.49156 -5.03421,5.03421 -7.48275,11.5607 -8.27121,22.04655 l -0.39897,5.30601 3.56319,-2.88311 c 4.3413,-3.51271 10.2986,-6.5686 15.18955,-7.79172 6.47532,-1.61933 14.38386,0.10067 21.16805,4.60376 3.59347,2.38521 5.70098,4.72422 7.08598,7.86433 1.4665,3.32489 5.13513,17.10194 8.12214,30.50161 1.44313,6.47387 2.92355,11.9584 3.28982,12.18785 0.95297,0.59701 4.40269,1.22171 21.23355,3.84512 8.21086,1.27982 15.29137,2.52983 15.73446,2.7778 1.424,0.7969 -1.5939,2.20145 -14.16462,6.5923 -18.93306,6.61316 -26.58283,10.3375 -32.63685,15.88946 -5.76675,5.28851 -7.71616,11.61768 -7.05868,22.91747 0.48538,8.34199 2.08813,14.62837 5.504,21.58811 4.96725,10.12062 12.34687,19.33512 21.81236,27.23581 9.63703,8.04388 17.46082,12.98854 34.92895,22.07518 5.34978,2.78287 9.72687,5.30221 9.72687,5.59852 0,2.08573 -2.10843,10.08345 -3.77151,14.30618 -4.55887,11.5754 -9.783,19.59966 -18.17348,27.91445 -15.04345,14.90777 -31.34296,23.60499 -51.92285,27.7054 -9.34996,1.86292 -25.66944,1.88203 -34.80684,0.0408 -8.16437,-1.6452 -16.40961,-4.52838 -23.83633,-8.33503 -21.62305,-11.08314 -37.86858,-33.11782 -42.52478,-57.67863 -1.84799,-9.74792 -0.76197,-26.65258 2.06696,-32.17337 1.35594,-2.64618 1.7193,-2.93585 12.33662,-9.83462 5.97061,-3.87949 13.05494,-9.53531 18.11239,-14.46014 6.37613,-6.20893 5.10437,-6.54599 -6.356,-1.68458 -14.02544,5.94949 -21.60844,7.60844 -32.90876,7.19948 -6.40315,-0.23173 -8.11516,-0.51003 -12.75286,-2.07314 -5.494,-1.85172 -7.64359,-3.0202 -12.86772,-6.99461 -5.79052,-4.40533 -12.50673,-14.02008 -12.50673,-17.90432 0,-4.05092 10.36173,-9.24626 21.32356,-10.69157 2.57906,-0.34005 5.05307,-0.7579 5.4978,-0.92856 2.77955,-1.06662 -2.18358,-4.07957 -9.15241,-5.55611 -5.07508,-1.07531 -15.391,-1.07403 -19.52373,0.002 -4.9369,1.2859 -10.64562,4.42573 -14.4491,7.94707 -6.31327,5.84498 -10.13555,16.29199 -9.37031,25.61084 0.45647,5.5587 1.88014,10.61445 3.18573,11.31318 0.89064,0.47666 1.27427,0.0739 2.79063,-2.93001 0.96692,-1.91546 2.67766,-4.90245 3.80164,-6.63776 5.312,-8.20115 6.71635,-9.02232 8.52991,-4.9877 4.06733,9.04856 5.30465,11.30961 8.2117,15.00585 4.24157,5.39303 10.90254,10.62248 18.46735,14.49851 l 6.06168,3.10585 v 15.72458 c 0,8.64851 0.27212,17.68104 0.60471,20.07228 3.23124,23.23177 22.74033,53.42192 43.35862,67.09712 7.91022,5.24649 20.4491,11.4538 28.45951,14.08874 7.85453,2.58365 7.79258,3.2739 -0.31894,3.55383 -14.56944,0.50279 -32.77664,-3.67745 -47.57527,-10.92294 -11.22921,-5.49788 -21.00542,-12.64712 -32.34463,-23.65326 -18.70093,-18.15164 -32.64415,-39.14806 -43.53412,-65.55597 -2.11857,-5.13749 -4.11871,-9.60765 -4.44475,-9.93369 -1.47759,-1.47759 0.12616,18.09581 2.21068,26.98077 2.20896,9.41537 8.24591,24.31202 14.1882,35.01049 19.70364,35.47432 44.36878,56.12547 78.06466,65.36049 11.68545,3.20262 17.56172,3.93007 31.81591,3.93861 12.68342,0.008 16.20631,-0.31347 28.08148,-2.55919 7.9094,-1.49574 10.02936,-1.46131 10.48453,0.17031 1.48873,5.33661 4.64983,18.43228 6.82136,28.2593 1.42999,6.47125 2.95002,12.81486 3.37785,14.09692 1.98992,5.96309 10.89243,45.74677 11.38638,50.88364 l 0.33101,3.44252 -4.44395,1.18945 c -7.34279,1.96535 -17.91722,4.05733 -18.27862,3.61614 -10.28542,-12.55608 -12.54903,-14.67359 -18.9984,-17.77216 l -4.94666,-2.37646 h -8.45815 c -9.6218,0 -12.04029,0.57508 -17.64049,4.19468 -4.68178,3.02597 -8.70477,7.43362 -11.46398,12.56011 l -2.36313,4.39059 -4.28382,-0.0948 c -2.35611,-0.0521 -5.2988,-0.18505 -6.53933,-0.29536 z m 84.65982,-198.13558 c 2.23298,-0.82793 5.19827,-3.94015 6.16435,-6.46978 1.82765,-4.78563 -0.35976,-11.17726 -4.83984,-14.14204 -2.64498,-1.75036 -7.69822,-2.05641 -10.42486,-0.63137 -5.68887,2.97319 -8.09732,10.26643 -5.29911,16.04675 2.53042,5.22715 8.50325,7.38261 14.39946,5.19644 z m -22.47431,-36.92268 c 4.18524,-1.74828 6.66834,-5.07346 6.92545,-9.27406 0.318,-5.1955 0.0663,-6.11679 -2.4033,-8.79597 -3.03583,-3.29349 -4.79407,-4.17319 -8.34089,-4.17319 -5.53231,0 -9.65266,3.4675 -10.80832,9.09581 -1.86673,9.09138 6.44723,16.56432 14.62706,13.14741 z M 513.9176,427.10907 c 4.12729,-1.54422 8.30153,-5.53134 10.30215,-9.84035 1.32737,-2.85895 1.57174,-4.12603 1.57685,-8.17621 0.005,-4.20139 -0.20953,-5.24533 -1.74058,-8.45815 -2.00903,-4.21582 -5.46679,-7.86301 -9.18813,-9.69148 -2.08982,-1.02683 -3.55963,-1.27382 -7.66085,-1.28736 -4.50255,-0.0149 -5.43944,0.16796 -8.30733,1.62112 -4.13978,2.09763 -8.09022,5.88957 -9.6398,9.25301 -0.98865,2.14594 -1.21796,3.70113 -1.22097,8.28092 -0.003,4.84723 0.19003,6.03247 1.37644,8.44344 1.88641,3.83348 5.57856,7.36571 9.7737,9.35034 4.43622,2.09869 9.96213,2.28805 14.72852,0.50472 z m 73.27949,-16.6667 c 3.82652,-1.30382 8.39516,-5.70426 10.62509,-10.23389 1.57451,-3.19829 1.83262,-4.32052 1.83796,-7.99109 0.0142,-9.78573 -5.85782,-15.22556 -16.97622,-15.72669 -6.38606,-0.28783 -10.11262,0.78821 -13.10984,3.78543 -6.0152,6.0152 -5.08386,19.84404 1.80005,26.72796 4.18162,4.18162 9.95776,5.43675 15.82296,3.43828 z M 469.75896,379.4403 c 7.47794,-13.24615 18.37228,-23.25262 32.79016,-30.11779 8.03812,-3.82741 13.92614,-5.26939 20.27666,-4.96577 4.6016,0.22001 5.38185,0.4417 10.18884,2.89497 2.8631,1.46119 5.42894,2.65154 5.70188,2.64523 0.27293,-0.006 0.3645,-1.18027 0.20348,-2.60879 -0.6993,-6.20421 -12.15471,-24.61945 -16.81342,-27.02856 -2.35007,-1.21527 -3.97484,-1.03463 -10.59903,1.17838 -15.64164,5.22555 -32.21229,15.6072 -40.97408,25.67062 -5.59968,6.43153 -7.26151,11.78764 -7.24736,23.35837 0.008,6.84865 0.17836,8.32372 1.28335,11.13656 0.70053,1.78326 1.46814,3.24229 1.70581,3.24229 0.23765,0 1.80533,-2.43248 3.48371,-5.40551 z"
         id="path452" />
      <path
         style="fill:#ffffff;stroke-width:0.563877"
         d="m 606.26108,635.84075 c -0.88414,-0.56046 -1.58598,-0.24645 9.21028,-4.12069 14.06291,-5.04649 24.21489,-10.65488 33.82599,-18.68697 2.47742,-2.07041 4.89861,-3.76438 5.3804,-3.76438 1.27881,0 10.14748,5.58475 10.55496,6.64663 0.47282,1.23214 -5.19372,6.29574 -11.44169,10.22426 -8.50392,5.34697 -18.18463,8.29462 -31.51011,9.59438 -7.35329,0.71725 -14.97663,0.76805 -16.01983,0.10677 z"
         id="path491" />
      <path
         style="fill:#ffffff;stroke-width:0.563877"
         d="m 678.90748,597.68259 c -4.84775,-1.34891 -10.14978,-5.32997 -10.14978,-7.62101 0,-0.54912 2.11383,-5.29654 4.6974,-10.54982 5.05192,-10.27229 8.03484,-18.51068 9.94856,-27.47653 1.66695,-7.8097 1.10499,-7.1298 11.55105,-13.97536 5.8538,-3.83614 17.71592,-15.34943 24.0281,-23.32151 2.75057,-3.47388 5.28449,-6.49132 5.63093,-6.70543 1.59153,-0.98363 1.94057,0.9696 1.79719,10.05706 -0.46845,29.69116 -8.14807,52.44794 -23.69913,70.22692 -7.44571,8.51241 -15.49265,11.67844 -23.80432,9.36568 z"
         id="path530" />
      <path
         style="fill:#ffffff;stroke-width:0.563877"
         d="m 631.21838,452.89813 c -3.48898,-1.6718 -7.57081,-5.44012 -7.57081,-6.98933 0,-0.84284 0.84107,-1.51104 3.24229,-2.57588 9.33562,-4.13998 36.94499,-11.20177 55.66866,-14.23865 9.56053,-1.55068 19.26142,-0.92326 31.01179,2.00573 5.1385,1.28086 6.73146,2.33783 4.95567,3.28821 -1.95893,1.04839 -14.51287,4.39377 -37.36914,9.95815 -44.40748,10.81105 -45.00858,10.91398 -49.93846,8.55177 z"
         id="path569" />
      <path
         style="fill:#ffffff;stroke-width:0.563877"
         d="m 571.20704,300.74594 c -6.46727,-0.48791 -12.91809,-1.77836 -15.70739,-3.14218 -1.67138,-0.81721 -2.23533,-1.54888 -3.02278,-3.92175 -1.36147,-4.10261 -2.3432,-12.51318 -1.88689,-16.1653 0.50062,-4.00684 3.35264,-9.88423 6.99719,-14.4197 3.1779,-3.95474 3.42534,-4.55957 1.86536,-4.55957 -1.81777,0 -6.79474,4.08544 -10.22607,8.39427 -6.06578,7.617 -10.33273,16.48749 -12.98244,26.98899 l -0.60468,2.39648 -8.85932,-0.029 c -8.99534,-0.0294 -16.12124,-0.56042 -16.81378,-1.25296 -1.26411,-1.26412 3.97894,-18.76385 7.33298,-24.4753 2.83913,-4.83462 8.70542,-11.43879 13.10776,-14.75648 6.94606,-5.23469 12.62955,-7.6237 35.04447,-14.73068 17.58989,-5.57713 22.22374,-8.07866 31.53513,-17.02382 3.21893,-3.09232 6.1574,-5.52174 6.52992,-5.39869 0.94664,0.31268 1.18255,7.247 0.38823,11.41138 -0.35493,1.86079 -1.2814,4.48036 -2.05882,5.82126 -0.77742,1.3409 -5.52386,6.68763 -10.54765,11.88162 -9.96065,10.29814 -12.55695,13.73568 -14.54775,19.26147 -1.20493,3.34449 -1.3077,4.51291 -1.28686,14.63036 0.0125,6.04758 0.33621,12.86986 0.71946,15.16063 0.38323,2.29078 0.62569,4.20284 0.53878,4.24905 -0.0869,0.0462 -2.56859,-0.0978 -5.51485,-0.32012 z"
         id="path608" />
      <path
         style="fill:#ffffff;stroke-width:0.563877"
         d="m 512.84581,757.742 c -10.68074,-0.94978 -28.73494,-4.02962 -45.70605,-7.79694 -34.19078,-7.5898 -86.22678,-25.15948 -89.53742,-30.23184 -1.17288,-1.797 -1.68114,-5.37305 -3.99643,-28.11852 -2.83235,-27.82504 -4.6723,-48.45014 -5.7094,-64 -1.76453,-26.45684 -1.91647,-86.0854 -0.27873,-109.39206 2.64604,-37.65571 8.45313,-75.90877 16.38701,-107.94604 1.50348,-6.07112 3.03117,-12.74717 3.39487,-14.83567 0.63484,-3.64554 0.60392,-3.89514 -0.77407,-6.2465 -2.8507,-4.86435 -12.43925,-12.67985 -20.55693,-16.75569 -4.03699,-2.02694 -8.42886,-3.41416 -27.46074,-8.67375 -9.39075,-2.59519 -15.7905,-5.7087 -19.62455,-9.54741 -8.27146,-8.28153 -10.91538,-21.60474 -7.16997,-36.13086 2.28278,-8.85352 6.58536,-19.91943 11.06824,-28.46672 2.04747,-3.90379 4.8565,-10.01267 6.2423,-13.57528 1.3858,-3.56261 2.78855,-6.80149 3.11721,-7.19751 0.78256,-0.94293 2.44283,1.32334 7.74622,10.57367 9.04122,15.76995 10.02766,18.96542 12.10688,39.2192 1.4345,13.97353 2.53382,20.15307 4.33105,24.34584 3.37257,7.86789 12.46982,16.74708 26.62768,25.98943 8.88378,5.7994 9.07691,5.00071 1.76813,-7.31215 -9.47723,-15.96596 -12.41413,-24.12073 -15.72657,-43.66726 -2.71704,-16.03307 -4.43907,-20.47911 -11.37328,-29.36421 -1.97626,-2.53227 -6.31113,-7.09967 -9.63304,-10.14978 -11.89719,-10.92375 -13.55541,-12.70484 -14.2498,-15.30575 -0.99657,-3.73272 0.57232,-20.97118 1.90861,-20.97118 0.14758,0 1.90519,2.34714 3.90578,5.21586 4.59902,6.59467 7.39837,9.77166 11.18067,12.68894 5.27677,4.06997 9.02764,5.49978 24.45278,9.32127 16.63476,4.12116 21.45153,5.92634 27.02303,10.12743 9.37942,7.07237 14.03562,16.1087 15.58316,30.24239 0.72582,6.62878 0.35629,27.14129 -0.79611,44.19265 -0.37204,5.50485 -0.5153,10.00881 -0.31837,10.00881 0.19694,0 1.4272,-1.06913 2.73392,-2.37585 3.71392,-3.71392 8.73848,-11.73282 13.64873,-21.78261 5.26784,-10.78167 4.38053,-10.09081 17.17041,-13.36881 18.86015,-4.83379 48.33986,-9.99875 62.83884,-11.00962 23.60678,-1.64585 60.56289,2.88306 74.28062,9.10298 6.41381,2.90816 13.96295,11.36039 14.96866,16.75934 0.47628,2.5568 -0.54964,2.78776 -4.18974,0.94317 -6.52872,-3.30835 -12.49017,-4.4819 -18.1783,-3.57849 -4.63192,0.73565 -7.99868,2.42567 -11.19678,5.62045 -4.8805,4.87543 -7.34064,11.50899 -8.12203,21.90035 l -0.39946,5.31222 3.23841,-2.63799 c 6.32837,-5.15505 14.88243,-8.83227 20.54588,-8.83227 9.58753,0 20.85679,6.79716 23.65099,14.26533 1.54891,4.13983 5.63686,19.89018 8.29832,31.97236 1.12719,5.11708 2.34253,9.48744 2.70075,9.71192 0.93746,0.58747 4.44323,1.22127 21.21891,3.83607 8.21086,1.27982 15.29137,2.52983 15.73446,2.7778 1.39254,0.7793 -1.49343,2.15846 -13.02759,6.22572 -12.91096,4.55276 -18.42783,6.72225 -23.15477,9.10556 -7.8044,3.93496 -13.57974,8.97723 -15.65443,13.66743 -2.57148,5.81324 -2.80195,17.83157 -0.52429,27.33891 2.88057,12.02392 12.7366,26.74619 24.77736,37.01079 9.54706,8.13875 18.32015,13.74029 35.68694,22.78583 5.50485,2.86721 10.00881,5.45797 10.00881,5.75723 0,1.99376 -2.10106,10.04319 -3.71184,14.22052 -4.40377,11.42053 -9.86884,19.74645 -18.62414,28.3735 -12.94275,12.75316 -27.61281,21.29552 -43.86349,25.54169 -10.11583,2.64317 -13.936,3.10992 -25.43048,3.10708 -12.29603,-0.003 -19.1286,-1.07089 -29.16808,-4.55865 -12.89918,-4.48123 -23.17252,-11.07251 -32.65311,-20.94994 -11.03352,-11.49536 -18.15758,-25.05809 -21.32417,-40.59682 -2.13319,-10.46774 -1.22598,-27.38771 1.78827,-33.35223 1.06977,-2.11684 2.27197,-3.21008 6.65299,-6.05003 8.93169,-5.78987 17.20562,-12.0691 22.55209,-17.11518 7.93826,-7.49225 7.01258,-7.83671 -6.24351,-2.32328 -4.47806,1.8625 -10.67937,4.08511 -13.7807,4.93913 -5.13441,1.41387 -6.52138,1.55486 -15.5066,1.57633 -9.73072,0.0232 -9.94206,-0.002 -15.20823,-1.83334 -5.91917,-2.05816 -7.77164,-3.06005 -12.63671,-6.83446 -6.14159,-4.76476 -12.75418,-14.15471 -12.75418,-18.1111 0,-3.69698 10.33233,-9.27172 19.19565,-10.35687 5.22113,-0.63923 8.4343,-1.52058 8.4343,-2.31347 0,-1.09798 -5.35145,-3.52971 -9.87767,-4.48847 -5.20697,-1.10296 -15.44665,-1.09868 -19.69636,0.008 -8.72394,2.2723 -16.78473,8.68274 -20.34496,16.17956 -2.87209,6.04781 -3.95245,12.35445 -3.21449,18.76478 0.99709,8.66138 3.43562,12.44538 5.22942,8.11478 0.98831,-2.386 5.90884,-10.43305 7.97352,-13.03992 2.42457,-3.06127 3.60846,-2.81138 5.30138,1.11898 6.1696,14.32361 12.89743,21.66975 26.15373,28.55735 l 6.11593,3.17767 0.23953,18.45848 c 0.22856,17.61416 0.30535,18.7035 1.67868,23.81531 6.32747,23.552 23.51353,48.22547 42.30439,60.73505 7.61508,5.06956 20.43795,11.41572 28.27543,13.99377 4.66417,1.53422 6.39645,2.33658 5.96916,2.7648 -0.88665,0.88859 -11.81034,1.09416 -18.00576,0.33885 -27.9129,-3.40299 -50.04814,-15.13411 -72.48078,-38.41297 -16.76317,-17.39554 -29.39147,-37.22512 -39.74553,-62.4104 -1.9473,-4.73663 -3.76065,-8.74807 -4.02967,-8.91434 -1.44215,-0.8913 0.46639,19.78405 2.60683,28.24004 2.39992,9.4811 8.78122,24.90965 14.43083,34.89052 17.15391,30.30493 38.08772,49.76811 64.50977,59.97787 22.68265,8.76482 44.08288,10.73964 69.23851,6.38933 12.30617,-2.12817 13.68468,-2.17339 14.16862,-0.46477 1.34692,4.75546 4.59225,18.12684 6.53492,26.92511 1.26684,5.73744 3.04852,13.04745 3.95931,16.24447 2.35583,8.26938 10.7061,45.96001 11.09296,50.07029 l 0.32399,3.44251 -4.44395,1.18788 c -7.74481,2.0702 -17.88292,4.09072 -18.26175,3.63956 -0.20087,-0.23921 -2.30813,-2.75678 -4.6828,-5.59459 -5.746,-6.86666 -8.70913,-9.38051 -14.35404,-12.17768 -4.57567,-2.26733 -4.92483,-2.34667 -11.30786,-2.56956 -7.90158,-0.27592 -12.12381,0.41907 -17.01811,2.80122 -5.12158,2.49277 -11.58348,9.00764 -14.30997,14.42726 l -2.05663,4.08811 -4.36296,-0.0948 c -2.39963,-0.0521 -5.37793,-0.18505 -6.61846,-0.29536 z m 85.28291,-198.50586 c 6.22531,-2.86415 8.06027,-10.76582 3.91834,-16.87303 -2.24132,-3.30478 -5.14781,-4.86783 -9.0517,-4.86783 -6.27575,0 -11.07466,5.11597 -11.07466,11.80637 0,8.48006 8.30502,13.57052 16.20802,9.93449 z m -23.0974,-36.55107 c 4.15022,-1.731 6.68508,-5.23305 6.91783,-9.55732 0.26869,-4.99217 0.013,-5.90096 -2.39568,-8.51404 -3.03583,-3.29349 -4.79407,-4.17319 -8.34089,-4.17319 -5.53231,0 -9.65266,3.4675 -10.80832,9.09581 -1.10032,5.35879 1.15875,10.36649 5.72789,12.69708 2.97599,1.51798 5.97738,1.67031 8.89917,0.45166 z m -59.94471,-96.08859 c 3.76123,-1.84315 7.39196,-5.58756 9.2105,-9.4989 1.24628,-2.68051 1.49344,-4.00536 1.49344,-8.00507 0,-5.72477 -1.51871,-9.6123 -5.40022,-13.82324 -3.49769,-3.79454 -7.11989,-5.47394 -12.50254,-5.79667 -4.16761,-0.24988 -4.60728,-0.15812 -8.52885,1.78002 -4.77402,2.35945 -8.11101,5.4488 -9.99014,9.24877 -1.11682,2.25843 -1.32156,3.54035 -1.32706,8.30918 -0.006,4.85067 0.18639,6.03075 1.37364,8.44344 2.30267,4.67938 7.18726,8.80782 12.43483,10.50988 0.77533,0.25148 3.43965,0.40093 5.92071,0.33211 3.45894,-0.0959 5.16513,-0.44567 7.31569,-1.49952 z m 73.77222,-16.93032 c 3.52836,-1.78178 7.4249,-5.99372 9.28504,-10.03659 1.1455,-2.48966 1.48688,-4.12362 1.49836,-7.17143 0.0187,-4.97353 -0.93321,-7.7285 -3.71215,-10.74331 -3.01622,-3.27221 -6.96495,-4.88822 -12.72827,-5.20903 -8.21103,-0.45706 -12.78317,1.5008 -15.66768,6.70916 -1.55475,2.80731 -1.68381,3.47307 -1.6825,8.67931 10e-4,5.1418 0.15644,5.9662 1.76039,9.35392 2.01647,4.25905 4.9957,7.49703 8.33095,9.05453 3.25758,1.52122 9.22537,1.2271 12.91586,-0.63656 z M 469.75896,379.4403 c 7.5072,-13.29798 18.28818,-23.19921 32.81794,-30.13993 8.03148,-3.83655 13.82245,-5.25088 20.24288,-4.94391 4.60861,0.22034 5.38632,0.4412 10.19484,2.89525 2.8631,1.46119 5.39595,2.65154 5.62854,2.64523 0.92382,-0.0251 0.30839,-3.87323 -1.17417,-7.34188 -3.45842,-8.09141 -11.46444,-19.78306 -15.07459,-22.01424 -2.43132,-1.50265 -4.8908,-1.2482 -12.03715,1.24532 -13.4629,4.69749 -27.50243,13.21643 -36.49427,22.14407 -8.74766,8.68521 -10.59305,13.31519 -10.57689,26.53675 0.008,6.84865 0.17836,8.32372 1.28335,11.13656 0.70053,1.78326 1.46814,3.24229 1.70581,3.24229 0.23765,0 1.80533,-2.43248 3.48371,-5.40551 z"
         id="path647" />
      <path
         style="fill:#ffffff;stroke-width:0.563877"
         d="m 510.5903,757.51217 c -11.69272,-1.21818 -26.34474,-3.7699 -43.45054,-7.56711 -34.19078,-7.5898 -86.22678,-25.15948 -89.53742,-30.23184 -1.1752,-1.80057 -1.68825,-5.40307 -4.00447,-28.11852 -2.79009,-27.36284 -4.65126,-48.25515 -5.70136,-64 -1.76559,-26.47272 -1.92431,-86.56054 -0.28893,-109.39206 2.75757,-38.49879 8.37548,-75.51876 16.36314,-107.82708 3.8627,-15.62375 4.19904,-17.71016 3.22453,-20.00317 -1.16212,-2.73451 -4.97144,-6.78609 -10.16985,-10.81666 -9.32438,-7.22962 -13.84156,-9.18015 -33.34259,-14.39746 -10.62388,-2.84231 -14.07778,-4.03311 -18.4654,-6.36629 -12.76978,-6.79053 -18.03367,-22.76966 -13.4092,-40.70513 2.09918,-8.14146 6.05463,-18.65945 9.7772,-25.99875 4.91314,-9.68657 5.84956,-11.70662 7.96038,-17.17223 2.75836,-7.14229 2.92867,-7.30703 4.84447,-4.68607 2.30914,3.15906 10.03689,16.75526 12.1799,21.42928 3.16785,6.90927 3.97378,10.98797 5.8551,29.6319 1.76185,17.45993 3.40085,22.72566 9.29934,29.87667 4.87879,5.91478 17.58282,16.10034 24.92037,19.9801 4.94901,2.61681 4.78358,1.77387 -1.87798,-9.56922 -9.80047,-16.6879 -12.11895,-23.31875 -16.24072,-46.44838 -0.78126,-4.38414 -2.07078,-10.02972 -2.86559,-12.54573 -2.67468,-8.46688 -9.61532,-17.08821 -25.26011,-31.3769 -7.27974,-6.64874 -7.46662,-7.16873 -6.56587,-18.27008 0.36471,-4.49489 0.91565,-8.81644 1.22429,-9.60344 l 0.56118,-1.43092 1.21194,1.63829 c 14.20904,19.20764 15.73063,20.22519 38.7985,25.94606 7.85955,1.94918 16.19317,4.34124 18.51916,5.31569 10.61798,4.44827 18.94945,13.90763 21.94613,24.91711 2.28254,8.38578 2.88437,22.44567 1.74955,40.87252 -0.28688,4.65817 -0.69211,11.88989 -0.90053,16.07048 l -0.37893,7.60108 2.65646,-2.53744 c 3.87182,-3.69835 8.783,-11.41839 13.93775,-21.90918 5.29128,-10.76867 4.46077,-10.1165 17.01821,-13.36387 18.05199,-4.66827 48.60246,-10.00635 62.99146,-11.00649 24.15074,-1.67864 61.51377,2.98906 74.66285,9.32749 6.58025,3.17198 13.57426,11.09933 14.58643,16.53298 0.48415,2.59906 -0.54739,2.78172 -4.51018,0.79865 -6.35999,-3.18268 -11.78622,-4.2363 -17.61756,-3.42081 -8.47427,1.18509 -14.64816,6.95105 -17.72803,16.55665 -0.91737,2.86113 -2.07,10.81014 -2.07,14.27559 v 1.89991 l 2.77102,-2.32003 c 6.2164,-5.20466 15.08038,-9.06252 20.82244,-9.06252 9.58214,0 20.88349,6.78756 23.66081,14.21061 1.5872,4.24219 5.18431,18.02075 7.98529,30.58729 1.24055,5.56572 2.59027,10.4542 2.99938,10.86331 0.77961,0.77961 2.24262,1.05692 23.24124,4.40531 7.13304,1.13742 13.32544,2.26597 13.7609,2.50792 1.39542,0.77529 -1.54882,2.14848 -14.14723,6.59823 -24.58683,8.68407 -33.6984,14.12267 -37.61311,22.45084 -2.51036,5.34055 -2.91534,16.5394 -0.93338,25.81067 2.66505,12.46676 12.32959,27.36969 24.61958,37.96398 9.91485,8.54685 16.92185,13.09319 34.34036,22.281 6.50755,3.43256 11.83191,6.48377 11.83191,6.78047 0,1.98959 -2.1028,10.04301 -3.71184,14.21584 -5.86854,15.2192 -15.08613,26.9876 -29.66746,37.87743 -10.8269,8.08588 -20.53287,12.82751 -32.83926,16.04285 -10.22193,2.67073 -13.92318,3.12337 -25.41139,3.10764 -12.30058,-0.0169 -19.17446,-1.09247 -29.16808,-4.5643 -12.89918,-4.48123 -23.17252,-11.07251 -32.65311,-20.94994 -11.12677,-11.59251 -18.14368,-24.93662 -21.31413,-40.53324 -2.1449,-10.55157 -1.24251,-27.45352 1.78405,-33.41581 1.1359,-2.2377 2.44557,-3.33888 9.77931,-8.22248 9.17337,-6.10864 15.42002,-11.00488 20.95718,-16.42665 6.08562,-5.95879 4.81933,-6.08141 -7.94278,-0.7692 -4.56718,1.90108 -10.76849,4.12294 -13.78069,4.93746 -4.90569,1.32653 -6.50563,1.48357 -15.34457,1.50617 -9.7327,0.0249 -9.94098,-2e-4 -15.20823,-1.83167 -5.91917,-2.05816 -7.77164,-3.06005 -12.63671,-6.83446 -6.14159,-4.76476 -12.75418,-14.15471 -12.75418,-18.1111 0,-3.98259 10.31247,-9.23738 21.00003,-10.70071 2.53497,-0.34708 5.1122,-0.90034 5.72716,-1.22946 1.08146,-0.57878 1.06812,-0.64139 -0.40722,-1.91043 -3.77241,-3.24489 -18.12844,-5.22901 -26.60191,-3.6766 -8.90914,1.63224 -18.03211,8.47656 -21.88807,16.4211 -3.03857,6.26045 -4.14943,12.75971 -3.28746,19.23385 0.79121,5.94264 2.06654,9.5267 3.38654,9.51717 0.58463,-0.004 1.81607,-1.71775 3.34319,-4.65198 1.32969,-2.55491 3.68747,-6.37433 5.2395,-8.48759 3.85812,-5.25326 4.61449,-5.09785 7.44961,1.53064 5.2945,12.37852 13.14972,20.45063 26.42179,27.15133 l 4.87657,2.46204 0.26428,18.49011 c 0.29652,20.74527 0.54594,22.44687 4.93613,33.67553 8.16085,20.8728 23.21414,40.37496 39.55386,51.24369 6.91311,4.59841 20.49592,11.26346 27.97079,13.72518 4.5106,1.4855 6.18014,2.26795 5.75285,2.69616 -0.8925,0.89445 -11.83926,1.09254 -18.00576,0.32583 -28.37593,-3.52813 -49.79672,-14.87788 -72.48078,-38.40375 -16.67563,-17.29447 -28.99457,-36.55978 -39.44608,-61.68883 -2.06381,-4.96212 -3.9922,-9.26308 -4.28531,-9.55771 -1.51877,-1.52663 0.40715,19.59986 2.56762,28.16564 2.67146,10.59176 9.2558,25.99977 16.02402,37.49779 18.64601,31.67634 39.99228,49.95254 69.76309,59.72959 21.44773,7.04365 40.89232,8.05877 65.86428,3.43849 8.28229,-1.53238 10.22827,-1.50925 10.69174,0.12708 1.34692,4.75546 4.59225,18.12684 6.53492,26.92511 1.26684,5.73744 3.0611,13.09134 3.98726,16.34199 2.40281,8.43338 10.67759,45.79696 11.06771,49.97458 l 0.32763,3.50856 -2.19161,0.61392 c -6.15076,1.72298 -20.15405,4.57289 -20.495,4.1711 -0.21485,-0.25321 -2.33356,-2.78222 -4.70823,-5.62003 -5.746,-6.86666 -8.70913,-9.38051 -14.35404,-12.17768 -4.57567,-2.26733 -4.92483,-2.34667 -11.30786,-2.56956 -7.90412,-0.27601 -12.13595,0.42092 -16.98491,2.79718 -5.01763,2.45892 -11.53135,9.01773 -14.33211,14.4313 l -2.11501,4.08811 -4.3393,-0.075 c -2.38661,-0.0412 -6.36925,-0.28649 -8.85031,-0.54497 z m 87.75286,-198.48416 c 4.53319,-2.26841 6.74409,-7.03583 5.61098,-12.09913 -1.42009,-6.34559 -5.51231,-9.55824 -11.67525,-9.16581 -2.90258,0.18482 -3.93906,0.53576 -5.68524,1.92495 -3.28749,2.6154 -4.78772,5.97095 -4.54555,10.16695 0.49238,8.53098 8.53286,13.05724 16.29506,9.17304 z m -21.36987,-37.50412 c 3.60477,-2.55001 4.58074,-4.23967 4.84487,-8.38773 0.12763,-2.00454 0.0696,-4.29191 -0.12895,-5.08303 -0.4474,-1.78261 -3.94165,-5.71729 -6.04175,-6.8033 -3.1128,-1.60969 -9.13372,-0.65721 -11.95115,1.89061 -3.64113,3.2927 -4.55069,10.40782 -1.90714,14.9187 3.14725,5.37038 10.21156,6.98233 15.18412,3.46475 z m -61.97842,-94.89968 c 3.5949,-1.74026 7.59603,-5.86173 9.35475,-9.63611 2.0713,-4.44521 2.04359,-11.3024 -0.0642,-15.88863 -1.87157,-4.07224 -5.52528,-8.04256 -9.16147,-9.95532 -2.46401,-1.29616 -3.51701,-1.495 -7.91691,-1.495 -4.46764,0 -5.43521,0.18914 -8.08611,1.58074 -4.06575,2.13432 -7.77442,5.66176 -9.56744,9.09989 -1.30668,2.50557 -1.48428,3.50957 -1.5002,8.48079 -0.0163,5.09784 0.13255,5.9246 1.55192,8.61848 2.50601,4.75627 7.12906,8.66032 12.245,10.3406 2.73801,0.89927 10.27814,0.24222 13.14466,-1.14544 z m 73.58589,-17.00365 c 6.64722,-3.32165 10.95602,-10.0059 11.03388,-17.11687 0.0547,-4.99692 -0.88672,-7.75356 -3.68456,-10.78886 -2.96328,-3.21477 -6.91586,-4.83251 -12.68681,-5.19255 -8.38313,-0.523 -13.12813,1.61253 -15.83641,7.12735 -1.37137,2.79249 -1.55544,3.80732 -1.54646,8.52658 0.009,4.63143 0.21763,5.80256 1.54206,8.64846 3.38854,7.28121 7.77939,10.44528 14.56914,10.49859 2.42218,0.019 3.95286,-0.37532 6.60916,-1.7027 z M 469.7009,379.48898 c 7.71097,-13.42211 17.68452,-22.709 31.84458,-29.6521 8.77384,-4.30209 14.58677,-5.80016 21.26684,-5.48079 4.58842,0.21938 5.39424,0.44707 10.20624,2.88378 2.87348,1.45507 5.40968,2.64559 5.63601,2.64559 0.22632,0 0.40841,-0.82467 0.40462,-1.8326 -0.0209,-5.57384 -12.01341,-25.02185 -17.128,-27.77624 -1.91486,-1.03122 -2.13425,-1.03517 -5.99699,-0.10812 -18.76375,4.5033 -43.64958,21.19299 -49.58842,33.25649 -4.08182,8.29134 -4.36821,26.01492 -0.49577,30.68092 0.78104,0.9411 0.38512,1.41579 3.85089,-4.61693 z"
         id="path686" />
      <path
         style="fill:#ffffff;stroke-width:0.563877"
         d="m 513.40968,757.76597 c -0.93039,-0.10847 -4.1022,-0.46721 -7.04845,-0.79722 -7.34146,-0.8223 -20.26326,-3.00799 -31.80495,-5.37972 -36.11358,-7.42106 -93.28156,-26.24776 -96.99849,-31.94379 -1.1856,-1.81689 -1.71123,-5.73529 -4.52632,-33.74248 -4.82331,-47.98693 -5.91199,-64.03588 -6.42251,-94.6781 -0.46063,-27.6479 0.11065,-61.3444 1.3049,-76.96916 2.87231,-37.57929 8.35385,-73.03753 16.08296,-104.03524 3.89095,-15.60473 4.18764,-17.51227 3.12083,-20.0655 -1.0928,-2.61545 -7.3451,-8.79493 -12.77913,-12.63031 -7.87162,-5.55585 -12.22198,-7.25947 -33.75703,-13.21943 -11.32482,-3.13422 -17.53701,-6.04139 -21.59812,-10.10744 -8.25223,-8.26228 -10.91411,-21.60965 -7.19007,-36.05291 2.44033,-9.46457 5.77028,-18.1461 10.85956,-28.31207 2.48413,-4.96212 5.52692,-11.55948 6.76175,-14.6608 2.83405,-7.11783 3.08672,-7.43687 4.48346,-5.6612 2.02221,2.57083 9.01714,14.66051 11.75802,20.322 3.96411,8.18812 4.88172,12.29315 6.49132,29.03964 2.09453,21.79186 4.06547,27.15833 13.28643,36.17632 6.84674,6.69604 21.66136,17.39196 24.08912,17.39196 1.20884,0 0.38444,-1.89486 -4.42584,-10.17274 -10.2625,-17.66043 -12.40527,-23.76555 -16.60064,-47.29826 -1.71205,-9.60325 -3.55826,-15.42188 -6.35301,-20.02254 -3.38001,-5.56409 -9.68611,-12.59478 -18.38227,-20.49446 -4.53231,-4.11718 -8.68777,-8.30397 -9.23436,-9.30396 -0.7979,-1.45976 -0.97005,-2.9853 -0.87329,-7.73887 0.14162,-6.95746 0.97448,-14.00777 1.74587,-14.77917 0.35084,-0.35083 1.8063,1.23085 4.08442,4.43864 5.00786,7.05148 7.6535,10.03326 11.52937,12.99425 5.33686,4.07713 9.26568,5.57971 24.57782,9.39986 7.88132,1.96627 16.23275,4.37076 18.55874,5.34331 7.85337,3.28366 15.01063,9.84163 19.08611,17.48803 5.00056,9.38201 6.14777,23.56019 4.3177,53.36177 -0.45707,7.44317 -0.83503,14.66296 -0.83989,16.04396 l -0.009,2.51091 2.30933,-2.22897 c 3.57361,-3.44927 9.75139,-13.19335 14.4027,-22.71704 4.13691,-8.47046 4.2761,-8.67016 6.83034,-9.80002 9.09448,-4.02292 53.64945,-12.62645 72.5986,-14.01873 23.82835,-1.75077 61.71387,2.94005 74.87612,9.27084 6.91464,3.32581 14.09318,11.54728 14.59025,16.70998 0.246,2.55509 -0.51329,2.51487 -6.85844,-0.36334 -4.67148,-2.119 -4.9573,-2.17411 -11.27754,-2.17411 -5.85571,0 -6.79739,0.14662 -9.71014,1.51181 -8.10698,3.7997 -12.6691,12.388 -13.72059,25.8293 l -0.41344,5.28499 2.75909,-2.31918 c 6.21191,-5.22148 15.24144,-9.16154 20.99572,-9.16154 9.68665,0 20.86573,6.77336 23.73435,14.38055 1.18528,3.14322 6.22348,22.71194 9.11043,35.38559 0.6893,3.026 1.56627,5.76159 1.94882,6.07908 0.73801,0.61249 2.62851,0.95806 23.09312,4.2213 7.13304,1.13742 13.32544,2.26597 13.7609,2.50792 1.39067,0.77265 -1.48719,2.11352 -14.50863,6.75993 -24.92349,8.89338 -32.73953,13.54286 -37.04311,22.03557 -3.16769,6.25113 -3.16981,20.29167 -0.005,30.23876 6.5408,20.55506 24.60953,38.55813 54.42977,54.23196 14.18581,7.45621 14.94211,7.9035 15.10282,8.93211 0.28172,1.80302 -2.49796,11.56738 -4.82629,16.95363 -6.16751,14.26763 -14.90216,24.84647 -29.37565,35.57791 -17.45162,12.93959 -38.32235,19.32817 -60.40749,18.49086 -23.92751,-0.90716 -42.99331,-9.22119 -58.71986,-25.60602 -11.12677,-11.59251 -18.14368,-24.93662 -21.31413,-40.53324 -2.14472,-10.5507 -1.2426,-27.45214 1.78359,-33.41581 1.12094,-2.20904 2.41633,-3.31966 8.93266,-7.65861 9.33268,-6.21422 16.03979,-11.41473 21.32486,-16.53469 6.08928,-5.89905 5.34394,-6.5428 -3.31989,-2.86738 -16.35895,6.9399 -23.56593,8.63069 -35.24229,8.26798 -7.00982,-0.21774 -8.48446,-0.44558 -13.16201,-2.03356 -6.20844,-2.1077 -8.66774,-3.47527 -13.66184,-7.59707 -5.94778,-4.90891 -11.78189,-13.50438 -11.79619,-17.37951 -0.0145,-3.92564 10.37476,-9.19575 20.99452,-10.6498 5.6508,-0.7737 7.01465,-1.37575 5.96947,-2.63511 -2.93496,-3.53641 -18.84075,-5.87333 -27.64659,-4.06191 -5.0164,1.03191 -11.72656,4.60143 -15.48305,8.23631 -5.27688,5.10605 -7.9827,10.59407 -9.24979,18.76073 -1.0722,6.91046 1.00635,17.78036 3.39997,17.78036 0.45487,0 1.97899,-2.09157 3.38692,-4.64792 3.7031,-6.7237 7.65359,-11.98644 8.9976,-11.98644 0.87384,0 1.90544,1.631 4.75962,7.52519 3.17593,6.55861 4.22749,8.14163 8.18673,12.3243 5.04574,5.33047 10.438,9.29876 17.33496,12.75719 l 4.58542,2.29933 0.28645,18.49413 c 0.25268,16.31437 0.42561,19.04217 1.46719,23.14393 5.76486,22.70213 23.96796,49.09554 42.23654,61.24046 8.14439,5.41438 21.15874,11.7741 29.85437,14.58892 7.37241,2.38649 6.40457,2.98063 -4.80834,2.95181 -9.23118,-0.0237 -13.64205,-0.57079 -22.74915,-2.82147 -21.08245,-5.21019 -36.76196,-14.56204 -55.23841,-32.94626 -19.0792,-18.98398 -31.20945,-37.43779 -42.57676,-64.77231 -2.01946,-4.8561 -3.90905,-9.07033 -4.19909,-9.36496 -1.16065,-1.17898 0.0165,15.36414 1.76341,24.78238 1.42113,7.66176 8.37423,25.62804 13.63907,35.24229 16.46243,30.06244 36.08868,49.65527 60.75739,60.65393 24.31216,10.83969 48.13208,13.46085 76.41644,8.4089 4.3037,-0.7687 8.75044,-1.39763 9.88163,-1.39763 h 2.05673 l 1.1765,4.0881 c 1.16581,4.05096 2.91796,11.40244 6.35014,26.64317 0.97777,4.34185 2.52107,10.55859 3.42954,13.81498 2.46876,8.84915 10.659,45.93387 11.03584,49.96932 l 0.32812,3.51373 -2.47404,0.63433 c -1.36071,0.34889 -2.849,0.76289 -3.30731,0.92002 -0.4583,0.15712 -4.37428,1.0407 -8.70218,1.9635 -6.35559,1.35515 -7.99362,1.53885 -8.51746,0.9552 -0.35671,-0.39744 -2.63113,-3.09318 -5.05427,-5.99053 -5.24574,-6.27234 -8.54543,-8.99073 -14.23515,-11.72738 -3.83665,-1.84535 -4.80027,-2.06324 -10.2717,-2.32258 -11.76971,-0.55786 -18.32747,1.72234 -25.39901,8.83148 -2.82444,2.83948 -4.98048,5.66206 -6.39485,8.37185 l -2.13377,4.08811 -4.3393,-0.0845 c -2.38661,-0.0465 -5.10053,-0.17323 -6.03093,-0.28169 z m 84.89346,-198.69759 c 4.50649,-2.29904 6.88509,-7.59068 5.60414,-12.46744 -1.47746,-5.62493 -5.48372,-8.94456 -10.79462,-8.94456 -3.76989,0 -6.3646,1.3108 -8.76066,4.42573 -3.04296,3.95591 -3.09474,10.30084 -0.11519,14.11589 3.11497,3.98846 9.37197,5.26526 14.06633,2.87038 z m -22.22665,-37.02612 c 1.16541,-0.60479 2.89281,-2.05579 3.83868,-3.22445 1.52416,-1.88315 1.74141,-2.61617 1.91003,-6.44489 0.21641,-4.9135 -0.60872,-6.68707 -4.60882,-9.90649 -1.94077,-1.56198 -2.5629,-1.74397 -5.96189,-1.74397 -3.19641,0 -4.16475,0.24469 -6.13916,1.55129 -3.1557,2.08834 -4.75857,5.3352 -4.79035,9.70358 -0.0274,3.76446 0.8449,5.92125 3.36035,8.30874 3.55295,3.3722 8.04923,4.00945 12.39116,1.75619 z M 515.1344,426.41685 c 3.38751,-1.71658 7.84034,-6.33027 9.25518,-9.58952 4.07918,-9.3969 -0.25082,-21.08893 -9.49041,-25.62637 -2.72481,-1.33811 -3.86862,-1.56107 -7.97407,-1.55429 -4.14662,0.007 -5.19901,0.22071 -7.80417,1.58594 -4.05994,2.12761 -7.77128,5.65484 -9.57198,9.09717 -1.31774,2.51907 -1.48668,3.48278 -1.48668,8.48079 0,5.01178 0.16694,5.95801 1.50143,8.50989 1.93458,3.69943 6.97335,8.29086 10.73978,9.78629 4.13743,1.64274 10.84326,1.3308 14.83092,-0.6899 z m -45.24507,-47.25558 c 7.49746,-13.06191 17.62735,-22.44565 31.65615,-29.32439 8.75074,-4.29076 14.59128,-5.79995 21.21931,-5.48306 4.51826,0.21602 5.39398,0.46263 10.3882,2.92537 2.99968,1.4792 5.58784,2.55559 5.75146,2.39197 0.75109,-0.75108 -0.67444,-5.74712 -2.86448,-10.03911 -5.19635,-10.18368 -12.23064,-19.17795 -15.57294,-19.91204 -0.86781,-0.1906 -3.09019,0.0453 -4.93861,0.52431 -17.09648,4.43014 -39.93803,18.99881 -47.46887,30.27633 -2.72469,4.08025 -3.80021,7.43905 -4.62705,14.44998 -0.96806,8.20827 0.87363,19.89061 3.02277,19.17423 0.39006,-0.13002 1.93539,-2.37263 3.43406,-4.98359 z"
         id="path725"
         sodipodi:nodetypes="cssssssssssssssssssssssssssssssssccsssssssssscssssssssscsssssssssssssssssssssssssscsssssssssssssscsssscssssssssscsccsssssssssssssssssscssssssssssssscssss" />
      <ellipse
         style="fill:#000000;stroke-width:0.979749"
         id="path1560"
         ry="18.590826"
         rx="17.3386"
         cy="397.56311"
         cx="584.10199" />
    </g>
  </g>
</svg>
